<?xml version="1.0" encoding="utf-8"?>
<!-- Generator: Adobe Illustrator 22.0.0, SVG Export Plug-In . SVG Version: 6.00 Build 0)  -->
<svg version="1.1" id="Layer_1" xmlns="http://www.w3.org/2000/svg" xmlns:xlink="http://www.w3.org/1999/xlink" x="0px" y="0px"
	 viewBox="0 0 720 90" style="enable-background:new 0 0 720 90;" xml:space="preserve">
<style type="text/css">
	.st0{fill:#1A1515;}
</style>
<g id="XMLID_286_">
	<g>
		<path id="XMLID_327_" class="st0" d="M12.3,22.2c-0.8,0-1.1,0.2-1.2,0.3c0,0-0.2,0.1-0.2,0.5c0,3.7,8.6,12.4,11.3,12.4H51
			l6.2-13.2H12.3z"/>
		<path id="XMLID_326_" class="st0" d="M22.9,37.9c-0.8,0-1.1,0.2-1.2,0.3c0,0-0.2,0.1-0.2,0.5c0,3.7,8.6,12.4,11.4,12.4h10.8
			l6.2-13.2H22.9z"/>
		<path id="XMLID_324_" class="st0" d="M34.4,53.6c-0.5,0-1.2,0.1-1.4,0.5c-0.4,1.4,1.9,5.3,5.2,8.6l4.2-9H34.4z"/>
		<path id="XMLID_323_" class="st0" d="M118.1,35.4c2.8,0,11.4-8.7,11.4-12.4c0-0.4-0.1-0.5-0.2-0.5c-0.1-0.1-0.4-0.3-1.2-0.3H83.1
			l5.9,13.2H118.1z"/>
		<path id="XMLID_322_" class="st0" d="M107.5,51.1c2.8,0,11.3-8.7,11.3-12.4c0-0.4-0.1-0.5-0.2-0.5c-0.1-0.1-0.4-0.3-1.2-0.3H90.2
			l5.9,13.2H107.5z"/>
		<path id="XMLID_321_" class="st0" d="M107.2,54.1c-0.1-0.4-0.9-0.5-1.4-0.5h-8.6l4.3,9.5C105.1,59.8,107.7,55.5,107.2,54.1"/>
		<path id="XMLID_317_" class="st0" d="M70.3,5.9l-36,77.3h14.6l7.5-16.4h26.7l7.1,16.4H105L70.3,5.9z M70,36.7l7.5,17.2H62.2
			L70,36.7z"/>
	</g>
	<g>
		<rect id="XMLID_315_" x="185.5" y="29.3" class="st0" width="9.1" height="46.4"/>
		<path id="XMLID_311_" class="st0" d="M234.1,75.7h-11L211.9,57h-0.1v18.7h-9.1V29.3H215c9.2,0,15.5,4.1,15.5,14
			c0,5.9-3.3,11.8-9.5,12.9L234.1,75.7z M211.8,50.7h1.2c5,0,8.5-1.5,8.5-7.1c0-5.7-3.6-6.8-8.4-6.8h-1.2V50.7z"/>
		<polygon id="XMLID_310_" class="st0" points="337.8,47.6 337.8,29.3 346.9,29.3 346.9,75.7 337.8,75.7 337.8,55 321.1,55 
			321.1,75.7 312,75.7 312,29.3 321.1,29.3 321.1,47.6 		"/>
		<rect id="XMLID_309_" x="355.1" y="29.3" class="st0" width="9.1" height="46.4"/>
		<path id="XMLID_307_" class="st0" d="M394.1,39.5c-1.7-2.3-3.9-3.8-7-3.8c-2.9,0-5.7,2.2-5.7,5.2c0,7.8,18.4,4.6,18.4,20.1
			c0,9.3-5.8,15.9-15.3,15.9c-6.4,0-11.1-3.7-14.3-9.1l5.8-5.7c1.2,3.6,4.5,6.8,8.4,6.8c3.7,0,6-3.1,6-6.7c0-4.8-4.4-6.2-8.1-7.6
			c-6-2.5-10.4-5.5-10.4-12.7c0-7.7,5.7-13.9,13.6-13.9c4.1,0,9.9,2,12.7,5.2L394.1,39.5z"/>
		<polygon id="XMLID_306_" class="st0" points="421.3,75.7 412.2,75.7 412.2,37.2 402.9,37.2 402.9,29.3 430.7,29.3 430.7,37.2 
			421.3,37.2 		"/>
		<polygon id="XMLID_305_" class="st0" points="444.6,67.9 457.4,67.9 457.4,75.7 435.5,75.7 435.5,29.3 444.6,29.3 		"/>
		<polygon id="XMLID_303_" class="st0" points="470.9,37.2 470.9,47.4 485.3,47.4 485.3,55.3 470.9,55.3 470.9,67.9 485.9,67.9 
			485.9,75.7 461.8,75.7 461.8,29.3 485.9,29.3 485.9,37.2 		"/>
		<polygon id="XMLID_302_" class="st0" points="507.9,29.3 516.3,29.3 530.8,68 545.3,29.3 553.7,29.3 553.7,75.3 547.9,75.3 
			547.9,37 547.8,37 533.4,75.3 528.2,75.3 513.8,37 513.7,37 513.7,75.3 507.9,75.3 		"/>
		<polygon id="XMLID_301_" class="st0" points="565.5,29.3 597.3,29.3 597.3,34.5 571.6,34.5 571.6,49.1 595.6,49.1 595.6,54.2 
			571.6,54.2 571.6,70.2 597.5,70.2 597.5,75.3 565.5,75.3 		"/>
		<path id="XMLID_297_" class="st0" d="M606.5,29.3h15.8c14.2,0,22.1,7.1,22.1,21.9c0,15.4-6.8,24.1-22.1,24.1h-15.8V29.3z
			 M612.7,70.2h10.2c4.2,0,15.5-1.2,15.5-18.1c0-11-4.1-17.6-15.3-17.6h-10.3V70.2z"/>
		<rect id="XMLID_296_" x="653.8" y="29.3" class="st0" width="6.1" height="46"/>
		<path id="XMLID_293_" class="st0" d="M684.3,29.3h6.8l18,46h-6.8l-5-13.9h-19.5l-5.2,13.9h-6.3L684.3,29.3z M679.8,56.3h15.6
			l-7.7-21.5h-0.1L679.8,56.3z"/>
		<path id="XMLID_289_" class="st0" d="M164,29.3h-7.9l-17.6,46.5h9.5l3.8-9.8h16.1l3.6,9.8h9.7L164,29.3z M154.4,58.6l5.1-16.9h0.1
			l5.8,16.9H154.4z"/>
		<polygon id="XMLID_288_" class="st0" points="267.8,75.7 276.3,46.3 276.4,46.3 285.3,75.7 292.6,75.7 308,29.3 298.5,29.3 
			289.4,61 289.3,61 279.8,29.3 274.1,29.3 265,61 264.9,61 255.6,29.3 246.1,29.3 260.6,75.7 		"/>
	</g>
</g>
</svg>
