<svg viewBox="0 0 60 31" fill="none" xmlns="http://www.w3.org/2000/svg">
<path d="M0 8.78571C0 6.69492 1.69492 5 3.78571 5H16.2143C18.3051 5 20 6.69492 20 8.78571V21.2143C20 23.3051 18.3051 25 16.2143 25H3.78571C1.69492 25 0 23.3051 0 21.2143V8.78571Z" fill="black"/>
<path d="M15.2857 7.14286H12.7143C11.2152 7.14286 10 8.35808 10 9.85714V20.1429C10 21.6419 11.2152 22.8571 12.7143 22.8571H15.2857C16.7848 22.8571 18 21.6419 18 20.1429V9.85714C18 8.35808 16.7848 7.14286 15.2857 7.14286Z" fill="white"/>
<path d="M24.9621 25V6.09091H36.6879V8.54688H27.8151V14.3082H35.8478V16.755H27.8151V25H24.9621ZM39.3249 25V10.8182H42.0855V25H39.3249ZM40.7191 8.62997C40.2389 8.62997 39.8265 8.46993 39.4818 8.14986C39.1433 7.82363 38.974 7.43584 38.974 6.9865C38.974 6.53101 39.1433 6.14323 39.4818 5.82315C39.8265 5.49692 40.2389 5.33381 40.7191 5.33381C41.1992 5.33381 41.6085 5.49692 41.947 5.82315C42.2917 6.14323 42.4641 6.53101 42.4641 6.9865C42.4641 7.43584 42.2917 7.82363 41.947 8.14986C41.6085 8.46993 41.1992 8.62997 40.7191 8.62997ZM51.0955 30.6136C49.9691 30.6136 48.9996 30.4659 48.1871 30.1705C47.3808 29.875 46.7222 29.4841 46.2113 28.9979C45.7004 28.5116 45.3188 27.9792 45.0664 27.4006L47.4393 26.4219C47.6055 26.6927 47.827 26.9789 48.104 27.2805C48.3872 27.5883 48.7688 27.8499 49.2489 28.0653C49.7352 28.2808 50.36 28.3885 51.1232 28.3885C52.1696 28.3885 53.0344 28.133 53.7177 27.6222C54.4009 27.1174 54.7425 26.3111 54.7425 25.2031V22.4148H54.5671C54.4009 22.7164 54.1609 23.0518 53.8469 23.4212C53.5392 23.7905 53.1145 24.1106 52.5728 24.3814C52.0311 24.6522 51.3263 24.7876 50.4584 24.7876C49.3382 24.7876 48.3287 24.526 47.43 24.0028C46.5375 23.4735 45.8297 22.6948 45.3065 21.6669C44.7894 20.6328 44.5309 19.3617 44.5309 17.8537C44.5309 16.3456 44.7863 15.053 45.2972 13.9759C45.8143 12.8987 46.5221 12.0739 47.4208 11.5014C48.3195 10.9228 49.3382 10.6335 50.4769 10.6335C51.3571 10.6335 52.0681 10.7812 52.6097 11.0767C53.1514 11.366 53.573 11.7045 53.8746 12.0923C54.1824 12.4801 54.4194 12.8217 54.5856 13.1172H54.7887V10.8182H57.494V25.3139C57.494 26.5327 57.2108 27.5329 56.6445 28.3146C56.0782 29.0964 55.3119 29.675 54.3455 30.0504C53.3853 30.4259 52.302 30.6136 51.0955 30.6136ZM51.0678 22.4979C51.8618 22.4979 52.5328 22.3132 53.0806 21.9439C53.6346 21.5684 54.0531 21.0329 54.3363 20.3374C54.6256 19.6357 54.7702 18.7955 54.7702 17.8168C54.7702 16.8627 54.6287 16.0225 54.3455 15.2962C54.0624 14.5698 53.6469 14.0036 53.0991 13.5973C52.5512 13.1849 51.8742 12.9787 51.0678 12.9787C50.2368 12.9787 49.5444 13.1941 48.9904 13.625C48.4364 14.0497 48.0179 14.6283 47.7347 15.3608C47.4577 16.0933 47.3192 16.9119 47.3192 17.8168C47.3192 18.7462 47.4608 19.5618 47.744 20.2635C48.0271 20.9652 48.4457 21.513 48.9996 21.907C49.5598 22.3009 50.2492 22.4979 51.0678 22.4979Z" fill="black"/>
</svg>
