<?xml version="1.0" encoding="UTF-8"?> <svg xmlns="http://www.w3.org/2000/svg" viewBox="0 0 234.41 23.02"><defs><style>.cls-1{fill:#fff;}.cls-2{fill:#fff;}.cls-3{fill:#d02c2f;}</style></defs><g id="Layer_2" data-name="Layer 2"><g id="Layer_1-2" data-name="Layer 1"><polygon class="cls-1" points="11.46 16.59 11.46 16.59 11.46 16.59 11.46 16.59"></polygon><path class="cls-2" d="M60.35,12.6h6.17a3.14,3.14,0,0,0-3.15-2.4,3,3,0,0,0-3,2.4M70,13.94a8.57,8.57,0,0,1-.07,1H60.26a3,3,0,0,0,3.11,2.69,3,3,0,0,0,2.7-1.48h3.61A6.62,6.62,0,0,1,56.77,14a6.6,6.6,0,1,1,13.19,0Z"></path><path class="cls-2" d="M91,12.37v8H87.55V12.93c0-1.69-.67-2.59-1.92-2.59-1.53,0-2.44,1.13-2.44,3.12v6.88H79.84V12.93c0-1.69-.65-2.59-1.88-2.59-1.56,0-2.49,1.13-2.49,3.12v6.88H72V7.62h2.41l.64,1.58a4.91,4.91,0,0,1,3.8-1.88,4.12,4.12,0,0,1,3.69,2,4.81,4.81,0,0,1,3.94-2c2.63,0,4.48,2.07,4.48,5"></path><path class="cls-2" d="M103.34,14a3.47,3.47,0,1,0-6.93,0,3.47,3.47,0,1,0,6.93,0m3.37-6.36V20.32H104l-.3-1.13A6.19,6.19,0,0,1,99.6,20.7,6.53,6.53,0,0,1,92.93,14a6.52,6.52,0,0,1,6.67-6.7,6.22,6.22,0,0,1,4.18,1.56l.37-1.22Z"></path><path class="cls-2" d="M121.23,12.63v7.71H117.8V13.19c0-1.92-.74-2.85-2.22-2.85-1.78,0-2.86,1.27-2.86,3.32v6.68h-3.44V7.62h2.36l.67,1.57a5.51,5.51,0,0,1,4.22-1.87c2.9,0,4.7,2.09,4.7,5.31"></path><path class="cls-3" d="M144.76,20.7c-3.19,0-5.33-1.82-5.34-4.55h3.35c0,1.14.88,1.7,2.12,1.7,1,0,1.81-.43,1.81-1.28s-1.11-1.13-2.45-1.36c-2-.34-4.62-.88-4.62-3.88,0-2.4,2.05-4.07,5.12-4.07s5.09,1.71,5.1,4.25h-3.26c0-1-.73-1.51-1.93-1.51s-1.7.49-1.7,1.22,1.09,1,2.41,1.29c2.08.37,4.72.81,4.72,3.91,0,2.59-2.12,4.28-5.33,4.28h0"></path><path class="cls-3" d="M158.53,20.7a6.65,6.65,0,0,1-6.76-6.76,6.58,6.58,0,0,1,6.77-6.68A6.38,6.38,0,0,1,165,12.48H161.6A3.31,3.31,0,0,0,155.26,14a3.35,3.35,0,0,0,3.27,3.51,3.23,3.23,0,0,0,3.06-2.13h3.47a6.46,6.46,0,0,1-6.53,5.36"></path><path class="cls-3" d="M176.44,12.6h6.17a3.14,3.14,0,0,0-3.15-2.4,3,3,0,0,0-3,2.4M186,15h-9.63a3,3,0,0,0,3.11,2.69,3,3,0,0,0,2.7-1.48h3.62A6.63,6.63,0,0,1,172.86,14a6.6,6.6,0,1,1,13.19,0,8.57,8.57,0,0,1-.07,1"></path><path class="cls-3" d="M200.08,12.63v7.71h-3.44V13.19c0-1.92-.73-2.85-2.22-2.85-1.77,0-2.86,1.27-2.86,3.32v6.68h-3.43V7.62h2.35l.68,1.57a5.47,5.47,0,0,1,4.21-1.87c2.9,0,4.71,2.09,4.71,5.31"></path><path class="cls-3" d="M208.41,20.7a6.64,6.64,0,0,1-6.75-6.76,6.57,6.57,0,0,1,6.77-6.68,6.37,6.37,0,0,1,6.47,5.22h-3.42a3.26,3.26,0,0,0-3.07-2A3.3,3.3,0,0,0,205.14,14a3.36,3.36,0,0,0,3.27,3.51,3.24,3.24,0,0,0,3.07-2.13h3.46a6.45,6.45,0,0,1-6.53,5.36"></path><path class="cls-3" d="M220,12.6h6.16A3.12,3.12,0,0,0,223,10.2a3,3,0,0,0-3,2.4M229.49,15h-9.62A3,3,0,0,0,223,17.64a3,3,0,0,0,2.69-1.48h3.62A6.62,6.62,0,0,1,216.38,14a6.59,6.59,0,1,1,13.18,0,6.86,6.86,0,0,1-.07,1"></path><path class="cls-2" d="M55,2.06H51.6V8.32a6.1,6.1,0,0,0-3.49-1.06A6.52,6.52,0,0,0,41.42,14a6.54,6.54,0,0,0,6.69,6.74,6.11,6.11,0,0,0,4-1.43l.41,1.05H55V2.06H51.6M48.38,17.47A3.38,3.38,0,0,1,44.92,14a3.47,3.47,0,1,1,6.93,0A3.39,3.39,0,0,1,48.38,17.47Z"></path><path class="cls-2" d="M133.36,8.32a6.1,6.1,0,0,0-3.49-1.06A6.52,6.52,0,0,0,123.18,14a6.53,6.53,0,0,0,6.69,6.74,6.11,6.11,0,0,0,4-1.43l.41,1.05h2.54V2.06l-3.44,0m-3.21,15.39A3.38,3.38,0,0,1,126.68,14a3.47,3.47,0,1,1,6.94,0A3.39,3.39,0,0,1,130.15,17.47Z"></path><polyline class="cls-3" points="170.77 7.62 167.33 7.65 167.33 20.34 170.77 20.34 170.77 7.62"></polyline><polyline class="cls-2" points="167.33 4.18 167.33 7.62 170.77 4.18 167.33 4.18"></polyline><path class="cls-2" d="M20.1,12a2.74,2.74,0,1,1-2.74-2.74A2.73,2.73,0,0,1,20.1,12"></path><path class="cls-2" d="M10,4.91A2.75,2.75,0,0,0,7.29,7.65a.91.91,0,1,1-1.81,0V2.74A2.74,2.74,0,0,0,0,2.74V20.28a2.74,2.74,0,0,0,5.48,0V15.34a.91.91,0,0,1,1.81,0v0a2.75,2.75,0,0,0,5.49,0V7.65A2.74,2.74,0,0,0,10,4.91"></path><path class="cls-3" d="M34.7,2.76A2.74,2.74,0,1,1,32,0,2.74,2.74,0,0,1,34.7,2.76"></path><path class="cls-3" d="M32,7.22a3,3,0,0,1-2.74-1.77V20.21a2.74,2.74,0,1,0,5.48,0V5.45A3,3,0,0,1,32,7.22Z"></path><path class="cls-3" d="M24.69,12A3,3,0,0,1,22,10.25v5.21a2.74,2.74,0,1,0,5.48,0V10.25A3,3,0,0,1,24.69,12Z"></path><path class="cls-3" d="M17.38,16.5a3,3,0,0,1-2.74-1.77v3.88a2.74,2.74,0,0,0,5.48,0V14.73A3,3,0,0,1,17.38,16.5Z"></path><path class="cls-3" d="M27.41,7.66a2.75,2.75,0,1,1-2.75-2.74,2.75,2.75,0,0,1,2.75,2.74"></path><path class="cls-3" d="M231.28,9.25a.7.7,0,0,1-.26.57,1.16,1.16,0,0,1-.72.2,1.79,1.79,0,0,1-.75-.14V9.46a2.58,2.58,0,0,0,.39.14,1.89,1.89,0,0,0,.39.05.67.67,0,0,0,.39-.1.34.34,0,0,0,.12-.27.33.33,0,0,0-.11-.26,2.07,2.07,0,0,0-.47-.25,1.31,1.31,0,0,1-.53-.34.73.73,0,0,1-.15-.46.64.64,0,0,1,.24-.53,1,1,0,0,1,.65-.2,2,2,0,0,1,.77.17l-.14.36a1.72,1.72,0,0,0-.64-.15.45.45,0,0,0-.33.1A.3.3,0,0,0,230,8a.48.48,0,0,0,0,.18.41.41,0,0,0,.15.14,1.81,1.81,0,0,0,.37.18,1.8,1.8,0,0,1,.43.23.61.61,0,0,1,.27.56"></path><path class="cls-3" d="M232.8,10,232,7.73h0c0,.33,0,.65,0,.94V10h-.4V7.28h.62L233,9.43h0l.77-2.15h.62V10H234V8.65c0-.14,0-.31,0-.53a2.54,2.54,0,0,1,0-.39h0L233.19,10h-.39"></path></g></g></svg> 